/* XPM */
static char *sample_mask[] = {
/* columns rows colors chars-per-pixel */
"48 48 3 1",
"  c Black",
". c Gray50",
"X c None",
/* pixels */
"................................................",
"................................................",
"..                                            ..",
"..                                            ..",
"..                                            ..",
"..                                            ..",
"..                                            ..",
"..                                            ..",
"..                                            ..",
"..                                            ..",
"..                                            ..",
"..                                            ..",
"..                                            ..",
"................................................",
"................................................",
"XXXXXXXXXXXXXXXXXXXXXXXXXXXXXXXXXXXXXXXXXXXXXXXX",
"XXXXXXXXXXXXXXXXXXXXXXXXXXXXXXXXXXXXXXXXXXXXXXXX",
".............XXXX..............XXXX.............",
".............XXXX..............XXXX.............",
".............XXXX..............XXXX.............",
".............XXXX..............XXXX.............",
".............XXXX..............XXXX.............",
".............XXXX..............XXXX.............",
".............XXXX..............XXXX.............",
".............XXXX..............XXXX.............",
".............XXXX..............XXXX.............",
".............XXXX..............XXXX.............",
".............XXXX..............XXXX.............",
".............XXXX..............XXXX.............",
".............XXXX..............XXXX.............",
"XXXXXXXXXXXXXXXXXXXXXXXXXXXXXXXXXXXXXXXXXXXXXXXX",
"XXXXXXXXXXXXXXXXXXXXXXXXXXXXXXXXXXXXXXXXXXXXXXXX",
"XXXXXXXXXXXXXXXXXXXXXXXXXXXXXXXXXXXXXXXXXXXXXXXX",
"XXXXXXXXXXXXXX....................XXXXXXXXXXXXXX",
".............X....................X.............",
".............X..                ..X.............",
".............X..                ..X.............",
".............X..                ..X.............",
".............X..                ..X.............",
".............X..                ..X.............",
".............X..                ..X.............",
".............X..                ..X.............",
".............X..                ..X.............",
".............X..                ..X.............",
".............X..                ..X.............",
".............X..                ..X.............",
".............X....................X.............",
"XXXXXXXXXXXXXX....................XXXXXXXXXXXXXX"
};
