/* XPM */
static char * mixer_mask_xpm[] = {
"48 48 3 1",
" 	c None",
".	c #79E77DF779E7",
"X	c #000000000000",
"...........   ....................   ...........",
"...........   ....................   ...........",
"..XXXXXXX..   ..XXXXXXXXXXXXXXXX..   ..XXXXXXX..",
"..XXXXXXX..   ..XXXXXXXXXXXXXXXX..   ..XXXXXXX..",
"..XXXXXXX..   ..XXXXXXXXXXXXXXXX..   ..XXXXXXX..",
"..XXXXXXX..   ..XXXXXXXXXXXXXXXX..   ..XXXXXXX..",
"..XXXXXXX..   ..XXXXXXXXXXXXXXXX..   ..XXXXXXX..",
"..XXXXXXX..   ..XXXXXXXXXXXXXXXX..   ..XXXXXXX..",
"..XXXXXXX..   ..XXXXXXXXXXXXXXXX..   ..XXXXXXX..",
"..XXXXXXX..   ..XXXXXXXXXXXXXXXX..   ..XXXXXXX..",
"..XXXXXXX..   ..XXXXXXXXXXXXXXXX..   ..XXXXXXX..",
"..XXXXXXX..   ..XXXXXXXXXXXXXXXX..   ..XXXXXXX..",
"..XXXXXXX..   ..XXXXXXXXXXXXXXXX..   ..XXXXXXX..",
"..XXXXXXX..   ....................   ..XXXXXXX..",
"..XXXXXXX..   ....................   ..XXXXXXX..",
"..XXXXXXX..                          ..XXXXXXX..",
"..XXXXXXX..                          ..XXXXXXX..",
"..XXXXXXX..      ..............      ..XXXXXXX..",
"..XXXXXXX..      ..............      ..XXXXXXX..",
"..XXXXXXX..      ..............      ..XXXXXXX..",
"..XXXXXXX..      ..............      ..XXXXXXX..",
"..XXXXXXX..      ..............      ..XXXXXXX..",
"..XXXXXXX..      ..............      ..XXXXXXX..",
"..XXXXXXX..      ..............      ..XXXXXXX..",
"..XXXXXXX..      ..............      ..XXXXXXX..",
"..XXXXXXX..      ..............      ..XXXXXXX..",
"..XXXXXXX..      ..............      ..XXXXXXX..",
"..XXXXXXX..      ..............      ..XXXXXXX..",
"..XXXXXXX..      ..............      ..XXXXXXX..",
"..XXXXXXX..      ..............      ..XXXXXXX..",
"..XXXXXXX..                          ..XXXXXXX..",
"..XXXXXXX..                          ..XXXXXXX..",
"..XXXXXXX..                          ..XXXXXXX..",
"..XXXXXXX..                          ..XXXXXXX..",
"..XXXXXXX..      ..............      ..XXXXXXX..",
"..XXXXXXX..      ..............      ..XXXXXXX..",
"..XXXXXXX..      ..............      ..XXXXXXX..",
"..XXXXXXX..      ..............      ..XXXXXXX..",
"..XXXXXXX..      ..............      ..XXXXXXX..",
"..XXXXXXX..      ..............      ..XXXXXXX..",
"..XXXXXXX..      ..............      ..XXXXXXX..",
"..XXXXXXX..      ..............      ..XXXXXXX..",
"..XXXXXXX..      ..............      ..XXXXXXX..",
"..XXXXXXX..      ..............      ..XXXXXXX..",
"..XXXXXXX..      ..............      ..XXXXXXX..",
"...........      ..............      ...........",
"...........      ..............      ...........",
"                                                "};
