/* XPM */
static char * cdpaused[] = {
"48 48 8 1",
" 	c #631863186318",
".	c #318C318C318C",
"X	c #9CE69CE69CE6",
"o	c #000000000000 s led_color_back",
"O	c #CE72CE72CE72",
"+	c none",
"@	c #0000FFFF0000 s led_color_high",
"a	c #000000000000",
"                                                ",
" ..............................................O",
" .ooooooooooooooooooooooooooooooooooooooooooooXO",
" .ooooooooooooooooooooooooooooooooooooooooooooXO",
" .ooooooooooooooooooooooooooooooooooooooooooooXO",
" .ooooooooooooooooooooooooooooooooooooooooooooXO",
" .ooooooooooooooooooooooooooooooooooooooooooooXO",
" .ooooooooooooooooooooooooooooooooooooooooooooXO",
" .ooooooooooooooooooooooooooooooooooooooooooooXO",
" .ooooooooooooooooooooooooooooooooooooooooooooXO",
" .ooooooooooooooooooooooooooooooooooooooooooooXO",
" .ooooooooooooooooooooooooooooooooooooooooooooXO",
" .ooooooooooooooooooooooooooooooooooooooooooooXO",
" .XXXXXXXXXXXXXXXXXXXXXXXXXXXXXXXXXXXXXXXXXXXXXO",
" OOOOOOOOOOOOOOOOOOOOOOOOOOOOOOOOOOOOOOOOOOOOOOO",
"++++++++++++++++++++++++++++++++++++++++++++++++",
"++++++++++++++++++++++++++++++++++++++++++++++++",
"OOOOOOOOOOOOO++++OOOOOOOOOOOOOO++++OOOOOOOOOOOOO",
"OXXXXXXXXXXXa++++OXXXXXXXXXXXXa++++OXXXXXXXXXXXa",
"OX         .a++++OX      @   .a++++OX         .a",
"OX         .a++++OX   @   @  .a++++OX         .a",
"OX  @      .a++++OX  @@ @    .a++++OX  @@@@@  .a",
"OX  @@@    .a++++OX @@@    @ .a++++OX  @@@@@  .a",
"OX  @@@@@  .a++++OX @@@  @   .a++++OX  @@@@@  .a",
"OX  @@@    .a++++OX @@@    @ .a++++OX  @@@@@  .a",
"OX  @      .a++++OX  @@ @    .a++++OX  @@@@@  .a",
"OX         .a++++OX   @   @  .a++++OX         .a",
"OX         .a++++OX      @   .a++++OX         .a",
"OX..........a++++OX...........a++++OX..........a",
"Oaaaaaaaaaaaa++++Oaaaaaaaaaaaaa++++Oaaaaaaaaaaaa",
"++++++++++++++++++++++++++++++++++++++++++++++++",
"++++++++++++++++++++++++++++++++++++++++++++++++",
"++++++++++++++++++++++++++++++++++++++++++++++++",
"++++++++++++++                    ++++++++++++++",
"OOOOOOOOOOOOO+ ..................O+OOOOOOOOOOOOO",
"OXXXXXXXXXXXa+ .ooooooooooooooooXO+OXXXXXXXXXXXa",
"OX         .a+ .ooooooooooooooooXO+OX         .a",
"OX         .a+ .ooooooooooooooooXO+OX         .a",
"OX  @   @  .a+ .ooooooooooooooooXO+OX  @   @  .a",
"OX  @ @@@  .a+ .ooooooooooooooooXO+OX  @@@ @  .a",
"OX  @@@@@  .a+ .ooooooooooooooooXO+OX  @@@@@  .a",
"OX  @ @@@  .a+ .ooooooooooooooooXO+OX  @@@ @  .a",
"OX  @   @  .a+ .ooooooooooooooooXO+OX  @   @  .a",
"OX         .a+ .ooooooooooooooooXO+OX         .a",
"OX         .a+ .ooooooooooooooooXO+OX         .a",
"OX..........a+ .ooooooooooooooooXO+OX..........a",
"Oaaaaaaaaaaaa+ .XXXXXXXXXXXXXXXXXO+Oaaaaaaaaaaaa",
"++++++++++++++ OOOOOOOOOOOOOOOOOOO++++++++++++++"};
