/* XPM */
static char * mixer[] = {
"48 48 8 1",
" 	c #631863186318",
".	c none",
"X	c #318C318C318C",
"o	c #9CE69CE69CE6",
"O	c #000000000000 s led_color_back",
"+	c #CE72CE72CE72",
"@	c #0000FFFF0000 s led_color_high",
"a	c #000000000000",
"           ...                    ...           ",
" XXXXXXXXX+... XXXXXXXXXXXXXXXXXX+... XXXXXXXXX+",
" XOOOOOOOo+... XOOOOOOOOOOOOOOOOo+... XOOOOOOOo+",
" XOOOOOOOo+... XOOOOOOOOOOOOOOOOo+... XOOOOOOOo+",
" XOOOOOOOo+... XOOOOOOOOOOOOOOOOo+... XOOOOOOOo+",
" XOOOOOOOo+... XOOOOOOOOOOOOOOOOo+... XOOOOOOOo+",
" XOOOOOOOo+... XOOOOOOOOOOOOOOOOo+... XOOOOOOOo+",
" XOOOOOOOo+... XOOOOOOOOOOOOOOOOo+... XOOOOOOOo+",
" XOOOOOOOo+... XOOOOOOOOOOOOOOOOo+... XOOOOOOOo+",
" XOOOOOOOo+... XOOOOOOOOOOOOOOOOo+... XOOOOOOOo+",
" XOOOOOOOo+... XOOOOOOOOOOOOOOOOo+... XOOOOOOOo+",
" XOOOOOOOo+... XOOOOOOOOOOOOOOOOo+... XOOOOOOOo+",
" XOOOOOOOo+... XOOOOOOOOOOOOOOOOo+... XOOOOOOOo+",
" XOOOOOOOo+... Xooooooooooooooooo+... XOOOOOOOo+",
" XOOOOOOOo+... +++++++++++++++++++... XOOOOOOOo+",
" XOOOOOOOo+.......................... XOOOOOOOo+",
" XOOOOOOOo+.......................... XOOOOOOOo+",
" XOOOOOOOo+......++++++++++++++...... XOOOOOOOo+",
" XOOOOOOOo+......+ooooooooooooa...... XOOOOOOOo+",
" XOOOOOOOo+......+o          Xa...... XOOOOOOOo+",
" XOOOOOOOo+......+o    @@@   Xa...... XOOOOOOOo+",
" XOOOOOOOo+......+o   @@@@@  Xa...... XOOOOOOOo+",
" XOOOOOOOo+......+o  @@@ @@@ Xa...... XOOOOOOOo+",
" XOOOOOOOo+......+o  @@   @@ Xa...... XOOOOOOOo+",
" XOOOOOOOo+......+o  @@@ @@@ Xa...... XOOOOOOOo+",
" XOOOOOOOo+......+o   @@@@@  Xa...... XOOOOOOOo+",
" XOOOOOOOo+......+o    @@@   Xa...... XOOOOOOOo+",
" XOOOOOOOo+......+o          Xa...... XOOOOOOOo+",
" XOOOOOOOo+......+oXXXXXXXXXXXa...... XOOOOOOOo+",
" XOOOOOOOo+......+aaaaaaaaaaaaa...... XOOOOOOOo+",
" XOOOOOOOo+.......................... XOOOOOOOo+",
" XOOOOOOOo+.......................... XOOOOOOOo+",
" XOOOOOOOo+.......................... XOOOOOOOo+",
" XOOOOOOOo+.......................... XOOOOOOOo+",
" XOOOOOOOo+......++++++++++++++...... XOOOOOOOo+",
" XOOOOOOOo+......+ooooooooooooa...... XOOOOOOOo+",
" XOOOOOOOo+......+o          Xa...... XOOOOOOOo+",
" XOOOOOOOo+......+o  O     O Xa...... XOOOOOOOo+",
" XOOOOOOOo+......+o  oO   Oo Xa...... XOOOOOOOo+",
" XOOOOOOOo+......+o   oO Oo  Xa...... XOOOOOOOo+",
" XOOOOOOOo+......+o    oOo   Xa...... XOOOOOOOo+",
" XOOOOOOOo+......+o    OoO   Xa...... XOOOOOOOo+",
" XOOOOOOOo+......+o   Oo oO  Xa...... XOOOOOOOo+",
" XOOOOOOOo+......+o  Oo   oO Xa...... XOOOOOOOo+",
" XOOOOOOOo+......+o          Xa...... XOOOOOOOo+",
" Xoooooooo+......+oXXXXXXXXXXXa...... Xoooooooo+",
" ++++++++++......+aaaaaaaaaaaaa...... ++++++++++",
"................................................"};
