/* XPM */
static char * mixled[] = {
"58 39 10 1",
" 	c #000063180000 s led_color_low",
".	c #00009CE60000 s led_color_med",
"X	c #FFFF00000000",
"o	c #0000FFFF0000 s led_color_high",
"O	c #CE72CE72CE72",
"+	c #9CE69CE69CE6",
"@	c #000000000000 s led_color_back",
"#	c #631863186318",
"$	c #318C318C318C",
"a	c #000000000000",
" . X . X . X . X . X . X . X . X . X . XoooXOOOOOOOOOOOOOO",
". .X. .X. .X. .X. .X. .X. .X. .X. .X. .XoooXO++++++++++++a",
" . X . X . X . X . X . X . X . X . X . XoooXO+######o###$a",
"@@@X@@@X@@@X@@@X@@@X@@@X@@@X@@@X@@@X@@@X@@@XO+###o###o##$a",
" . X . X . X . X . X . X . X . X . XoooXoooXO+##oo#o####$a",
". .X. .X. .X. .X. .X. .X. .X. .X. .XoooXoooXO+#ooo####o#$a",
" . X . X . X . X . X . X . X . X . XoooXoooXO+#ooo##o###$a",
"@@@X@@@X@@@X@@@X@@@X@@@X@@@X@@@X@@@X@@@X@@@XO+#ooo####o#$a",
" . X . X . X . X . X . X . X . XoooXoooXoooXO+##oo#o####$a",
". .X. .X. .X. .X. .X. .X. .X. .XoooXoooXoooXO+###o###o##$a",
" . X . X . X . X . X . X . X . XoooXoooXoooXO+######o###$a",
"@@@X@@@X@@@X@@@X@@@X@@@X@@@X@@@X@@@X@@@X@@@XO+$$$$$$$$$$$a",
" . X . X . X . X . X . X . XoooXoooXoooXoooXOaaaaaaaaaaaaa",
". .X. .X. .X. .X. .X. .X. .XoooXoooXoooXoooXaaaaaaaaaaaaaa",
" . X . X . X . X . X . X . XoooXoooXoooXoooXa$$$$$$$$$$$$O",
"@@@X@@@X@@@X@@@X@@@X@@@X@@@X@@@X@@@X@@@X@@@Xa$#######o##+O",
" . X . X . X . X . X . XoooXoooXoooXoooXoooXa$###ooo#o##+O",
". .X. .X. .X. .X. .X. .XoooXoooXoooXoooXoooXa$##o###oo##+O",
" . X . X . X . X . X . XoooXoooXoooXoooXoooXa$#o#####o##+O",
"@@@X@@@X@@@X@@@X@@@X@@@X@@@X@@@X@@@X@@@X@@@Xa$#o#####o##+O",
" . X . X . X . X . XoooXoooXoooXoooXoooXoooXa$#o#####o##+O",
". .X. .X. .X. .X. .XoooXoooXoooXoooXoooXoooXa$##o###oo##+O",
" . X . X . X . X . XoooXoooXoooXoooXoooXoooXa$###ooo#o##+O",
"@@@X@@@X@@@X@@@X@@@X@@@X@@@X@@@X@@@X@@@X@@@Xa$#######o##+O",
" . X . X . X . XoooXoooXoooXoooXoooXoooXoooXa$+++++++++++O",
". .X. .X. .X. .XoooXoooXoooXoooXoooXoooXoooXaOOOOOOOOOOOOO",
" . X . X . X . XoooXoooXoooXoooXoooXoooXoooXOOOOOOOOOOOOOO",
"@@@X@@@X@@@X@@@X@@@X@@@X@@@X@@@X@@@X@@@X@@@XO++++++++++++a",
" . X . X . XoooXoooXoooXoooXoooXoooXoooXoooXO+##########$a",
". .X. .X. .XoooXoooXoooXoooXoooXoooXoooXoooXO+##@#####@#$a",
" . X . X . XoooXoooXoooXoooXoooXoooXoooXoooXO+##+@###@+#$a",
"@@@X@@@X@@@X@@@X@@@X@@@X@@@X@@@X@@@X@@@X@@@XO+###+@#@+##$a",
" . X . XoooXoooXoooXoooXoooXoooXoooXoooXoooXO+####+@+###$a",
". .X. .XoooXoooXoooXoooXoooXoooXoooXoooXoooXO+####@+@###$a",
" . X . XoooXoooXoooXoooXoooXoooXoooXoooXoooXO+###@+#+@##$a",
"@@@X@@@X@@@X@@@X@@@X@@@X@@@X@@@X@@@X@@@X@@@XO+##@+###+@#$a",
" . XoooXoooXoooXoooXoooXoooXoooXoooXoooXoooXO+##########$a",
". .XoooXoooXoooXoooXoooXoooXoooXoooXoooXoooXO+$$$$$$$$$$$a",
" . XoooXoooXoooXoooXoooXoooXoooXoooXoooXoooXOaaaaaaaaaaaaa"};
